# xmcd CD database file
#
# Track frame offsets:
#	150
#	20034
#	33811
#	54786
#	71162
#	89435
#	104119
#	117786
#	135126
#	149547
#	163816
#	180021
#	195382
#	213276
#	230201
#	254549
#
# Disc length: 3676 seconds
#
# Revision: 1
# Processed by: cddbd v1.5.2PL0 Copyright (c) Steve Scherf et al.
# Submitted via: CDex 1.81
#
DISCID=de0e5a10
DTITLE=Sergio Mendes - The Very Best Of - CD2
DYEAR=2015
DGENRE=Jazz
TTITLE0=Mas Que Nada
TTITLE1=Moanin
TTITLE2=Rio De Janeiro
TTITLE3=Capivara
TTITLE4=Maracatudo
TTITLE5=Garota De Ipanema
TTITLE6=Night And Day
TTITLE7=Norwegian Wood
TTITLE8=Constant Rain
TTITLE9=So Danco Samba
TTITLE10=Masquerade
TTITLE11=After Sunrise
TTITLE12=My Summer Love
TTITLE13=Trilhos Urbanos
TTITLE14=Puzzle Of Hearts
TTITLE15=Un Oceano Di Silenzi
EXTD=YEAR: 2015
EXTT0=
EXTT1=
EXTT2=
EXTT3=
EXTT4=
EXTT5=
EXTT6=
EXTT7=
EXTT8=
EXTT9=
EXTT10=
EXTT11=
EXTT12=
EXTT13=
EXTT14=
EXTT15=
PLAYORDER=
